<?xml version="1.0" standalone="no"?>
<!DOCTYPE svg PUBLIC "-//W3C//DTD SVG 20010904//EN"
 "http://www.w3.org/TR/2001/REC-SVG-20010904/DTD/svg10.dtd">
<svg version="1.0" xmlns="http://www.w3.org/2000/svg"
 width="885.000000pt" height="250.000000pt" viewBox="0 0 886.000000 898.000000"
 preserveAspectRatio="xMidYMid meet">
<metadata>
Would you segfault me? I'd segfault me.
</metadata>

<rect x="0" y="0" width="886" height="898" fill="#89cff0"/>

<g transform="translate(0.000000,898.000000) scale(0.100000,-0.100000)"
fill="#9966cc" stroke="none">

<path d="M0 4490 l0 -4490 4430 0 4430 0 0 4490 0 4490 -4430 0 -4430 0 0
-4490z m4572 2356 c41 -8 107 -27 148 -43 67 -26 75 -31 72 -53 -3 -19 -1 -22
10 -13 16 13 48 9 59 -9 5 -7 9 -10 9 -6 0 4 9 0 20 -9 15 -13 16 -19 7 -25
-7 -5 -2 -7 13 -4 14 2 31 -3 38 -10 7 -8 8 -14 3 -14 -6 0 -8 -8 -5 -17 5
-14 4 -15 -4 -4 -5 7 -15 10 -21 6 -9 -5 -9 -10 0 -21 7 -8 9 -27 5 -48 -5
-23 -3 -36 6 -39 10 -4 10 -8 -2 -16 -10 -7 -11 -11 -2 -11 16 0 16 -59 -1
-66 -23 -8 -17 -45 11 -69 19 -16 29 -20 34 -12 5 7 8 1 8 -14 0 -16 7 -30 18
-34 15 -6 15 -8 1 -18 -22 -17 -9 -61 19 -65 27 -4 28 -9 1 -31 -15 -12 -21
-28 -21 -56 0 -22 -7 -59 -14 -83 -16 -50 -18 -86 -4 -77 5 3 7 12 3 20 -3 8
0 15 7 15 9 0 10 -14 5 -50 -5 -37 -4 -51 7 -55 12 -5 13 -16 9 -82 -1 -7 -7
-13 -14 -13 -8 0 -22 -9 -31 -19 -17 -18 -16 -20 3 -26 12 -3 21 -11 21 -17 0
-6 -8 -7 -17 -3 -32 12 -37 10 -41 -13 -2 -14 4 -29 15 -38 16 -13 16 -13 0
-8 -12 4 -16 2 -12 -8 3 -8 -1 -21 -10 -28 -8 -7 -15 -18 -15 -24 0 -6 -13
-17 -30 -23 -25 -9 -32 -9 -40 5 -8 14 -11 15 -19 3 -10 -15 -88 -24 -97 -10
-3 5 -13 9 -22 9 -13 0 -13 -2 4 -15 19 -14 19 -14 0 -15 -11 0 -28 8 -39 18
-19 16 -20 16 -15 -5 8 -29 -18 -39 -34 -13 -17 27 -28 25 -28 -6 0 -23 -2
-25 -15 -14 -11 9 -13 16 -5 24 16 16 12 30 -6 16 -13 -11 -16 -10 -21 8 -4
18 -7 19 -19 7 -18 -18 -18 -43 0 -47 13 -3 13 -6 0 -22 -14 -19 -14 -19 -14
2 0 26 -3 27 -36 6 -23 -16 -26 -16 -48 5 -31 29 -39 26 -21 -9 15 -29 15 -30
-6 -27 -12 2 -27 14 -35 28 -12 23 -13 23 -21 4 -9 -22 -53 -29 -53 -9 0 8 6
11 15 8 11 -5 15 1 15 22 0 25 -4 29 -27 31 -16 0 -31 -4 -35 -10 -17 -27 -98
-3 -98 30 0 8 5 11 10 8 6 -3 10 1 10 9 0 9 -7 16 -15 16 -10 0 -15 -10 -15
-30 0 -36 -13 -38 -45 -6 l-24 24 6 -29 c3 -16 2 -29 -1 -29 -14 0 -37 30 -31
40 3 5 2 10 -3 10 -6 0 -12 -7 -16 -15 -6 -17 -36 -21 -36 -5 0 6 -5 10 -11
10 -6 0 -20 11 -30 24 -10 13 -35 31 -55 41 -33 16 -34 18 -17 30 25 17 81 24
87 11 3 -7 9 -5 15 4 9 12 11 13 11 1 0 -8 3 -11 7 -7 13 12 -26 34 -50 29
-16 -3 -18 -2 -8 5 7 5 10 15 7 21 -4 6 3 15 16 20 21 9 21 10 3 11 -36 4 -70
-2 -82 -12 -15 -12 -14 -12 -19 22 -1 14 -6 37 -10 53 -5 20 -3 27 8 27 8 0
14 -9 14 -21 -1 -22 28 -48 40 -36 4 3 1 14 -6 22 -10 12 -10 19 -2 27 17 17
15 48 -4 48 -8 0 -12 5 -9 10 4 6 11 8 16 5 5 -3 6 1 3 9 -4 9 0 18 9 22 9 3
13 13 10 24 -4 15 -1 18 16 15 12 -2 19 0 16 6 -4 5 -15 9 -26 9 -11 0 -29 9
-41 20 -12 11 -32 20 -44 20 -15 0 -23 7 -26 25 -3 14 -1 25 3 25 5 0 9 -9 9
-20 0 -23 4 -24 31 -10 16 9 21 7 29 -12 6 -17 9 -19 9 -5 1 22 21 23 21 0 0
-35 9 -5 15 50 4 36 3 57 -4 57 -6 0 -7 -8 -4 -17 5 -12 2 -15 -10 -10 -13 5
-17 1 -17 -19 0 -15 -4 -23 -11 -19 -6 4 -8 13 -5 21 3 8 1 14 -3 14 -5 0 -11
-7 -15 -15 -4 -13 -9 -13 -24 -4 -14 9 -19 24 -19 52 0 21 -6 43 -13 47 -7 4
-9 13 -6 19 11 16 23 13 28 -7 3 -10 21 -28 41 -40 28 -16 35 -17 30 -5 -3 8
0 19 8 24 11 8 9 9 -6 7 -13 -2 -21 4 -23 17 -4 22 -45 65 -62 65 -5 0 -10 17
-10 38 0 24 3 32 9 24 6 -10 10 -7 15 12 6 23 9 24 31 14 14 -6 25 -15 25 -19
0 -4 9 -5 20 -2 21 6 28 23 9 23 -7 0 -21 11 -33 23 -14 15 -31 23 -45 20 -17
-2 -22 1 -18 11 3 8 3 17 -1 20 -10 11 -9 85 2 79 5 -3 6 -1 2 6 -6 9 -11 9
-22 0 -12 -10 -13 -9 -8 5 8 21 30 21 43 -1 6 -11 11 -13 11 -5 0 7 4 11 9 8
5 -3 8 8 7 25 -1 16 2 33 7 36 6 4 7 0 3 -8 -4 -8 -1 -5 6 5 17 24 46 51 58
52 6 1 17 2 26 3 8 0 13 5 10 10 -8 12 68 56 152 87 137 53 286 66 424 40z
m2924 -161 c-1 -8 -10 -23 -21 -35 -10 -11 -15 -23 -11 -28 4 -4 14 2 22 12 7
11 17 17 20 13 4 -4 1 -14 -7 -24 -12 -15 -12 -16 4 -10 10 4 17 4 15 0 -27
-62 -144 -266 -157 -275 -10 -7 -23 -29 -30 -50 -12 -38 -83 -143 -159 -238
-67 -84 -288 -307 -311 -315 -12 -3 -21 -12 -21 -20 0 -14 -27 -28 -40 -20
-14 8 -22 -13 -15 -36 5 -16 9 -18 15 -9 5 9 19 10 45 6 34 -7 36 -8 19 -21
-17 -12 -16 -13 11 -9 l30 5 -27 -16 c-16 -9 -28 -19 -28 -24 0 -4 -19 -13
-42 -18 -33 -8 -37 -11 -17 -12 33 -1 45 -28 24 -51 -16 -18 -9 -30 25 -43 9
-3 5 -6 -10 -6 l-25 -1 24 -19 c21 -16 22 -20 10 -40 -10 -15 -21 -21 -36 -18
-38 7 -48 -17 -18 -47 14 -14 25 -22 25 -19 0 3 6 0 14 -6 17 -14 15 -123 -2
-129 -8 -2 -7 -11 1 -29 9 -21 8 -27 -6 -38 -9 -7 -17 -25 -17 -40 0 -16 -7
-36 -15 -45 -22 -24 -39 -121 -23 -132 10 -6 8 -8 -4 -8 -9 0 -23 6 -30 13 -7
7 -21 16 -30 20 -25 9 -23 31 2 24 13 -3 20 0 20 9 0 8 -4 14 -10 14 -5 0 -10
7 -10 15 0 8 -4 15 -10 15 -5 0 -10 7 -10 15 0 8 -5 15 -11 15 -6 0 -9 -6 -6
-14 3 -8 -5 -18 -19 -25 -13 -6 -24 -16 -24 -23 0 -9 3 -8 10 2 6 9 10 10 10
3 0 -6 3 -20 7 -30 6 -15 4 -16 -9 -6 -12 11 -18 9 -33 -7 -10 -12 -25 -18
-32 -16 -9 4 -8 -3 4 -21 13 -20 14 -28 5 -31 -7 -2 -10 -8 -6 -13 3 -5 -1
-12 -9 -14 -16 -7 -11 -66 7 -77 8 -6 6 -11 -4 -19 -11 -8 -12 -12 -2 -16 6
-2 12 -13 12 -22 0 -14 6 -17 25 -13 14 2 25 0 25 -4 -1 -22 -21 -37 -49 -37
-26 0 -31 -4 -31 -24 0 -18 6 -23 28 -24 25 -1 26 -1 4 -7 -13 -4 -23 -10 -23
-14 3 -36 1 -40 -14 -28 -12 10 -16 9 -21 -4 -8 -21 -30 -20 -43 2 -10 16 -10
16 -11 0 0 -10 -6 -18 -14 -18 -8 0 -21 -7 -30 -15 -8 -9 -21 -14 -28 -13 -7
2 -13 -6 -13 -17 0 -32 -31 -30 -48 4 -13 26 -13 31 -1 31 8 0 14 6 15 13 0 9
2 9 6 0 6 -16 32 -17 53 -2 13 9 13 10 0 7 -22 -3 -59 23 -53 39 3 7 0 20 -7
28 -10 12 -14 12 -26 0 -8 -7 -14 -23 -14 -34 0 -22 -20 -40 -20 -19 -1 8 -9
4 -19 -9 -11 -13 -27 -23 -38 -24 -15 0 -14 -2 5 -9 12 -5 22 -14 22 -20 0 -5
7 -10 15 -10 8 0 15 -6 15 -14 0 -8 8 -17 18 -19 10 -3 6 -5 -10 -6 -19 -1
-28 -6 -28 -17 0 -13 -3 -14 -14 -5 -12 10 -14 8 -9 -11 4 -18 3 -20 -6 -8 -8
11 -11 11 -11 2 0 -7 7 -15 15 -18 8 -4 15 -15 15 -26 0 -10 -4 -16 -10 -13
-6 3 -7 -1 -4 -9 9 -22 -9 -20 -31 4 -18 20 -45 27 -45 11 0 -13 26 -32 34
-24 10 11 26 -19 21 -38 -4 -13 1 -16 25 -15 24 1 31 6 36 29 6 27 27 36 39
17 3 -5 -1 -10 -9 -10 -12 0 -16 -10 -16 -40 0 -40 0 -40 -24 -25 -13 9 -26
12 -28 7 -5 -13 -58 -24 -58 -12 0 5 -7 10 -15 10 -19 0 -15 22 5 32 11 6 10
7 -4 5 -15 -1 -20 -11 -22 -39 -2 -20 1 -40 5 -43 5 -3 7 4 4 15 -3 11 -2 20
2 20 10 0 35 -27 35 -39 0 -6 12 -22 27 -35 20 -19 24 -29 16 -37 -8 -8 -11
-6 -10 7 1 13 -4 18 -15 16 -9 -1 -22 6 -27 17 -6 11 -19 18 -28 16 -10 -2
-24 -4 -30 -4 -7 -1 -13 -9 -13 -19 0 -10 -5 -23 -10 -28 -7 -7 -5 -17 5 -30
14 -18 14 -18 15 9 0 16 4 26 10 22 6 -3 10 -17 10 -31 0 -20 -5 -24 -30 -24
-31 0 -34 -6 -32 -57 1 -13 -3 -23 -8 -23 -6 0 -10 5 -10 10 0 6 -4 10 -10 10
-5 0 -10 -8 -10 -19 0 -12 13 -25 35 -35 40 -19 47 -30 11 -16 -17 6 -29 5
-42 -5 -10 -7 -25 -10 -34 -7 -13 5 -13 3 -1 -11 8 -10 11 -20 7 -24 -3 -3 -6
-1 -6 5 0 7 -5 12 -11 12 -5 0 -7 -5 -4 -10 12 -19 -7 -32 -20 -13 -9 12 -10
25 -4 41 13 33 13 34 -26 26 -34 -6 -41 0 -36 30 3 16 -23 25 -37 14 -7 -6
-25 -11 -41 -10 -20 0 -31 -6 -38 -21 -6 -14 -12 -17 -17 -9 -4 7 -2 12 3 12
6 0 11 7 11 15 0 13 19 20 43 16 5 -1 6 3 2 8 -3 6 -13 7 -22 4 -12 -5 -12 -2
3 15 10 12 24 22 31 22 7 0 10 7 6 15 -3 9 2 21 12 29 22 16 12 61 -12 52 -38
-15 -63 -18 -63 -7 0 6 -10 11 -22 11 -19 0 -20 2 -8 10 10 7 11 10 2 10 -8 0
-12 18 -11 60 2 64 13 80 58 80 13 0 24 11 32 35 7 19 17 35 21 35 13 0 9 27
-6 39 -7 6 -16 25 -20 41 -3 19 -14 34 -28 39 -13 5 -29 18 -37 29 -8 12 -18
19 -23 16 -10 -6 -11 20 -1 29 3 4 13 1 21 -5 11 -10 16 -8 24 7 11 18 11 18
24 0 13 -18 14 -17 14 8 0 15 5 27 11 27 6 0 1 13 -10 29 -15 21 -27 28 -41
24 -22 -6 -29 20 -9 33 8 4 8 9 0 17 -6 6 -11 19 -11 29 0 10 -7 18 -17 18
-40 1 -53 25 -58 99 -3 53 -1 71 8 68 7 -2 13 -23 14 -46 1 -24 3 -44 5 -46 2
-3 17 -1 34 4 26 7 29 11 26 42 -4 41 -19 59 -28 36 -9 -25 -24 -20 -24 8 0
14 4 25 9 25 11 0 22 66 14 86 -5 13 -7 13 -22 0 -24 -22 -59 -17 -53 8 3 13
1 17 -6 12 -8 -5 -10 -1 -5 10 4 11 8 13 11 6 7 -22 40 -13 46 14 5 20 1 30
-20 46 -22 18 -24 23 -12 32 18 13 31 50 32 93 2 27 -1 32 -16 27 -12 -3 -18
0 -18 9 0 18 26 41 39 33 5 -3 11 0 14 7 3 8 -4 19 -14 25 -10 7 -19 17 -19
22 0 16 27 11 34 -6 3 -9 11 -12 18 -8 8 5 9 2 5 -9 -4 -10 -10 -25 -14 -34
-5 -12 -2 -15 10 -10 11 4 14 2 10 -8 -3 -10 5 -19 23 -25 24 -9 31 -8 41 6 7
10 13 24 13 31 0 15 -16 17 -25 3 -9 -15 -25 -12 -25 5 0 7 8 19 18 24 16 10
16 10 -1 11 -10 0 -15 5 -12 10 4 6 -6 10 -23 10 -26 0 -29 3 -24 26 4 21 2
25 -9 19 -11 -6 -12 -5 -2 5 10 11 8 16 -10 25 -16 8 -21 18 -19 37 2 18 -3
30 -17 37 -29 16 -52 3 -49 -27 2 -14 -3 -27 -9 -29 -8 -3 -13 3 -13 14 0 10
-4 24 -9 32 -8 12 -12 12 -25 2 -10 -9 -16 -9 -16 -3 0 6 9 16 20 22 11 6 20
20 20 32 0 25 10 19 14 -9 2 -10 10 -19 19 -21 12 -2 15 1 11 12 -3 9 -1 16 5
16 16 0 14 17 -6 46 -16 26 -17 26 -25 5 -4 -12 -16 -21 -27 -21 -15 0 -19 5
-14 16 4 12 7 13 14 3 14 -24 19 -4 8 37 -14 50 -29 67 -29 31 0 -39 -18 -33
-26 8 -6 32 -32 53 -57 47 -5 -1 -6 6 -3 16 4 11 0 24 -9 32 -19 16 -19 39 0
47 9 3 15 15 13 26 -2 14 5 25 20 33 13 6 23 14 22 18 0 3 5 12 12 20 15 15
41 10 31 -7 -3 -6 -1 -7 6 -3 9 6 9 11 0 22 -15 18 -49 18 -49 0 0 -16 -58
-61 -67 -52 -3 3 2 17 12 32 14 21 19 24 27 13 7 -10 8 -1 3 26 -4 22 -7 45
-7 51 -1 6 -10 9 -20 6 -26 -7 -22 14 5 22 20 6 21 7 4 17 -10 6 -24 9 -30 6
-7 -3 -13 3 -13 13 0 12 6 16 21 13 16 -4 17 -3 5 6 -17 12 -10 14 14 5 9 -3
16 -9 16 -13 0 -4 40 -48 89 -96 49 -49 89 -94 88 -99 -1 -6 3 -10 9 -11 10 0
138 -107 159 -132 13 -16 75 -51 193 -109 118 -58 223 -79 321 -64 157 25 324
106 465 226 39 33 78 63 88 66 9 4 32 31 53 60 20 29 67 94 105 143 83 108
149 217 250 414 41 80 80 146 87 146 6 0 21 12 33 28 24 31 29 33 26 12z
m-6111 -15 c3 -5 17 -10 31 -10 23 0 27 -7 27 -52 0 -10 3 -15 7 -13 10 6 23
-62 15 -78 -4 -6 1 -3 9 7 13 17 16 17 16 4 0 -9 8 -24 17 -33 9 -10 17 -24
18 -34 4 -29 25 -73 51 -105 14 -17 50 -71 80 -120 85 -138 159 -232 269 -343
235 -235 507 -345 725 -294 67 16 202 78 264 120 25 18 46 28 46 24 0 -4 6 -1
13 7 7 8 26 23 42 32 17 10 29 22 28 27 -2 5 6 8 17 6 12 -2 18 0 14 6 -3 6 6
24 22 40 21 22 30 26 37 17 6 -9 7 -8 4 3 -4 11 18 39 65 84 62 58 73 65 83
52 10 -14 13 -14 25 3 11 15 16 16 23 7 6 -9 7 -8 4 3 -2 8 -12 13 -23 11 -18
-3 -18 -2 1 20 12 13 14 19 5 14 -8 -5 -1 7 15 27 29 36 55 48 55 27 0 -5 5
-7 12 -3 8 5 7 10 -4 18 -13 10 -13 13 -2 24 8 7 19 10 26 6 8 -5 9 -2 5 9 -3
9 -2 19 2 21 5 3 8 -5 7 -17 -1 -12 -7 -21 -14 -19 -7 1 -12 -5 -12 -13 0 -8
6 -13 13 -11 6 1 9 1 4 -1 -4 -3 -5 -9 -1 -14 3 -5 -2 -9 -10 -9 -24 0 -20
-41 4 -47 24 -6 26 -26 5 -43 -8 -7 -15 -16 -15 -21 0 -14 30 -10 31 4 0 9 2
9 5 0 7 -17 -14 -53 -31 -53 -8 0 -15 6 -15 13 0 7 -14 18 -31 24 -25 10 -31
9 -36 -3 -3 -8 -12 -13 -21 -12 -12 2 -17 -6 -18 -32 -3 -43 12 -63 39 -54 17
5 19 3 14 -15 -4 -17 -1 -21 21 -22 15 0 21 -3 15 -6 -18 -7 -63 -111 -69
-157 -5 -38 -55 -116 -74 -114 -24 4 -40 -11 -40 -38 0 -17 5 -24 20 -24 21 0
28 -16 9 -22 -6 -2 -11 -17 -11 -33 0 -17 -6 -39 -14 -49 -12 -18 -14 -18 -20
-3 -3 9 -11 17 -16 17 -16 0 -2 -69 18 -91 14 -15 14 -20 3 -24 -11 -4 -14
-34 -13 -144 1 -76 4 -143 8 -149 5 -8 2 -10 -8 -6 -11 4 -16 0 -16 -14 0 -11
-7 -25 -15 -32 -17 -14 -20 -36 -6 -42 5 -1 12 -31 16 -65 6 -53 4 -64 -13
-81 -20 -20 -20 -20 1 -27 20 -7 20 -8 3 -12 -16 -4 -18 -11 -12 -49 4 -34 2
-46 -9 -50 -10 -4 -12 -12 -4 -31 12 -33 12 -33 -16 -33 -22 0 -25 -4 -25 -40
0 -29 -4 -40 -15 -40 -12 0 -15 13 -15 56 0 45 -3 55 -15 50 -8 -3 -19 2 -24
12 -11 19 -16 16 -26 -16 -5 -19 -2 -25 15 -29 17 -4 21 -12 17 -29 -3 -17 0
-24 12 -24 14 -1 14 -2 -2 -14 -15 -12 -15 -15 -2 -26 8 -7 24 -10 35 -7 11 3
20 2 20 -3 0 -12 -44 -18 -70 -8 -17 6 -21 5 -17 -7 4 -8 2 -17 -3 -20 -5 -3
-7 -12 -3 -20 3 -8 1 -15 -5 -15 -5 0 -12 7 -16 15 -3 8 -11 15 -18 14 -10 0
-10 -2 0 -6 20 -8 14 -22 -8 -18 -11 2 -20 -1 -20 -6 0 -6 11 -9 25 -7 13 2
23 -1 22 -7 -1 -5 -8 -9 -17 -8 -8 1 -3 -3 13 -10 18 -7 30 -22 36 -42 9 -35
3 -55 -11 -31 -7 13 -13 14 -30 5 -19 -10 -20 -9 -16 15 4 19 1 25 -11 23 -26
-4 -41 -17 -40 -35 0 -11 3 -12 6 -4 7 19 23 14 32 -10 6 -17 4 -25 -8 -30
-14 -6 -14 -7 2 -7 10 -1 20 5 23 13 3 8 13 12 25 9 11 -3 18 -8 15 -11 -3 -2
1 -16 8 -31 7 -14 11 -32 9 -38 -3 -7 0 -13 6 -13 6 0 11 -11 11 -24 0 -19 -4
-23 -20 -19 -14 4 -20 0 -20 -10 0 -8 -6 -18 -12 -21 -10 -5 -10 -7 0 -12 6
-3 10 -10 6 -15 -8 -14 -24 -11 -24 6 0 8 -4 15 -10 15 -5 0 -10 10 -10 22 0
21 0 21 16 2 15 -18 15 -18 9 10 -4 21 -1 33 15 48 16 15 18 23 10 33 -7 8 -9
19 -5 25 3 5 -1 10 -10 10 -11 0 -15 -5 -11 -15 16 -40 18 -49 11 -42 -5 4
-15 -3 -22 -15 -7 -13 -12 -17 -13 -10 0 6 -8 12 -17 11 -11 0 -13 -3 -5 -6
17 -7 15 -33 -3 -33 -22 0 -18 34 5 55 24 22 26 35 5 35 -8 0 -15 6 -15 14 0
8 -5 18 -11 21 -7 5 -9 -4 -7 -26 2 -21 -1 -34 -9 -34 -6 0 -15 -3 -19 -7 -14
-15 -46 -8 -51 11 -3 12 -11 17 -19 14 -8 -3 -12 -9 -9 -13 7 -12 -21 -32 -42
-28 -12 2 -18 -3 -19 -17 -2 -43 -3 -44 -29 -32 -14 7 -25 17 -25 24 0 6 -5
15 -12 19 -8 5 -9 -2 -5 -24 4 -22 2 -32 -9 -36 -13 -5 -14 2 -8 42 6 43 6 46
-9 33 -15 -11 -17 -11 -17 2 0 8 -5 17 -12 19 -6 2 -8 9 -4 16 5 8 14 8 32 2
33 -13 84 -13 84 0 0 6 -13 10 -29 10 -37 0 -48 15 -18 25 12 4 26 7 30 6 5
-1 6 3 2 9 -3 5 -15 10 -26 10 -15 0 -19 7 -19 31 0 17 -4 28 -10 24 -5 -3
-10 -24 -10 -46 0 -39 0 -40 -35 -36 -36 4 -61 17 -32 17 9 0 17 5 17 10 0 6
7 10 15 10 8 0 15 9 15 20 0 11 -4 20 -9 20 -5 0 -16 3 -24 6 -11 4 -16 -2
-19 -21 l-3 -28 -28 29 c-16 16 -36 29 -45 29 -12 0 -17 9 -18 28 -1 16 -7 33
-15 38 -9 6 -3 7 17 3 25 -5 35 -2 48 17 22 32 20 49 -6 49 -16 0 -19 3 -11
11 11 11 50 -4 65 -26 5 -6 12 -5 20 3 10 10 9 14 -8 18 -16 4 -20 12 -17 32
4 25 3 26 -10 9 -10 -12 -17 -14 -22 -8 -3 6 -16 11 -28 11 -15 0 -26 10 -35
29 -16 36 -42 49 -42 20 0 -16 -4 -19 -20 -14 -24 8 -27 -10 -3 -19 11 -4 22
-1 29 8 16 22 23 10 17 -30 -5 -30 -3 -34 16 -34 11 0 21 -2 21 -4 0 -2 3 -11
6 -20 3 -9 1 -16 -5 -16 -6 0 -11 7 -11 15 0 8 -9 15 -20 15 -13 0 -18 -5 -14
-15 4 -8 1 -15 -6 -15 -8 0 -11 11 -8 30 4 26 0 34 -29 51 -36 22 -44 61 -22
98 9 14 9 25 -2 47 -10 21 -12 35 -4 52 11 26 30 24 30 -3 0 -10 6 -20 13 -23
7 -2 11 2 10 9 -3 15 34 19 44 4 4 -5 10 -6 14 -3 3 4 0 14 -9 22 -8 8 -17 12
-21 9 -3 -4 -6 -1 -6 5 0 6 -7 9 -15 6 -9 -4 -15 0 -15 10 0 9 4 16 9 16 5 0
12 7 15 16 3 8 2 12 -4 9 -6 -3 -10 2 -10 12 -1 17 -1 17 -14 1 -7 -10 -16
-15 -19 -11 -4 3 -7 1 -7 -5 0 -8 -8 -8 -29 -1 -22 8 -36 7 -53 -2 -21 -12
-21 -14 -4 -17 10 -2 23 1 29 7 7 7 14 7 24 0 17 -15 17 -44 -2 -59 -9 -8 -15
-9 -15 -2 0 6 5 14 11 18 7 4 7 10 1 16 -12 12 -35 1 -27 -13 4 -5 -3 -9 -14
-9 -12 0 -21 6 -21 13 0 8 -11 20 -25 27 -14 7 -25 17 -25 22 0 4 -4 8 -10 8
-15 0 -12 -19 5 -36 19 -19 19 -38 1 -53 -12 -10 -14 -9 -12 5 2 10 -4 30 -11
46 -13 24 -13 35 0 77 l14 49 -28 -8 c-26 -8 -29 -6 -29 13 0 43 11 65 30 60
24 -6 31 8 24 46 -6 27 -34 46 -34 22 0 -5 -10 -11 -21 -14 -16 -4 -20 -11
-16 -26 3 -12 1 -21 -4 -21 -15 0 -10 42 8 62 13 15 15 23 6 36 -6 9 -18 16
-27 14 -10 -2 -16 4 -16 18 0 22 -15 27 -23 8 -3 -8 -6 -6 -6 5 -1 9 6 17 14
17 8 0 15 5 15 10 0 6 -3 10 -7 10 -5 0 -13 11 -20 25 -14 32 -6 39 52 43 18
2 20 7 17 37 -4 31 -22 51 -22 24 0 -6 -7 -17 -15 -25 -13 -14 -15 -13 -15 6
0 13 -4 19 -12 14 -7 -4 -8 -3 -4 5 4 6 11 9 15 7 4 -3 14 10 21 29 8 19 17
35 20 35 4 0 7 7 7 15 0 8 -4 12 -8 9 -4 -2 -9 1 -12 8 -2 7 -3 5 -2 -4 2 -10
-1 -18 -6 -18 -5 0 -9 -7 -9 -15 0 -8 -4 -15 -9 -15 -5 0 -7 9 -4 20 3 11 0
20 -6 20 -6 0 -11 9 -11 20 0 11 -6 20 -12 20 -10 0 -9 3 1 9 17 11 5 51 -16
51 -13 0 -13 3 -3 15 10 12 9 15 -6 16 -18 0 -18 1 1 9 18 8 17 9 -8 9 -25 1
-28 -2 -26 -26 3 -37 -11 -69 -22 -52 -4 7 -3 19 3 26 8 10 8 21 -1 39 -6 14
-9 36 -6 50 3 13 7 35 10 49 3 14 9 23 14 20 18 -11 22 30 4 43 -10 7 -17 18
-16 23 2 5 -1 9 -6 9 -5 0 -11 9 -14 20 -3 11 0 20 6 20 6 0 2 8 -9 19 -10 10
-22 17 -26 14 -5 -2 -8 0 -8 6 0 6 -41 50 -91 98 -102 99 -201 219 -279 338
-60 92 -121 199 -124 218 -1 6 -10 24 -20 39 -10 15 -14 33 -10 39 4 7 3 9 -4
5 -6 -3 -16 2 -21 13 -15 27 -14 30 9 26 11 -2 22 0 25 5 3 5 -3 7 -13 5 -23
-4 -43 7 -45 26 -2 8 -6 19 -9 25 -10 16 2 54 18 54 7 0 16 -4 19 -10z m3045
-2791 c0 -446 -2 -509 -15 -509 -8 0 -15 5 -15 11 0 5 -6 7 -12 3 -9 -5 -9 -2
1 9 12 15 11 17 -4 17 -27 0 -13 -33 18 -44 42 -15 83 10 79 48 -4 28 -3 29
30 21 18 -4 40 -6 48 -4 8 1 106 3 216 3 162 1 204 4 215 15 11 13 11 14 -4 8
-19 -7 -21 0 -7 23 6 9 5 17 -3 22 -9 6 -9 8 1 8 7 0 10 5 7 10 -4 6 -12 7
-18 3 -7 -4 -6 0 2 10 7 9 9 17 3 17 -5 0 -12 11 -14 25 -5 25 7 35 15 13 2
-7 2 -2 -1 12 -3 14 -5 33 -6 42 0 9 -3 16 -7 15 -4 -1 -7 3 -7 8 0 6 4 9 8 8
4 -1 6 7 3 18 -5 16 -8 18 -15 7 -7 -9 -8 -7 -5 8 2 12 0 29 -5 38 -6 11 -5
16 3 16 9 0 9 3 0 14 -9 11 -9 15 1 19 10 4 8 9 -4 17 -10 6 -18 16 -18 21 0
6 5 7 10 4 14 -9 12 8 -2 24 -10 11 -10 13 0 7 18 -11 15 5 -5 20 -17 13 -17
14 0 8 10 -4 17 -1 17 7 0 7 -8 21 -17 32 -13 15 -14 18 -3 12 13 -8 13 -7 1
8 -8 10 -15 32 -16 49 -2 21 0 26 6 17 7 -11 9 -11 9 2 0 9 -6 19 -14 22 -7 3
-13 17 -13 31 0 14 3 23 8 21 4 -3 5 9 3 27 -3 18 -5 49 -6 68 0 19 -3 29 -5
23 -9 -24 -20 -13 -21 20 0 17 -1 34 -2 37 -1 3 -3 21 -5 40 -3 26 -2 30 5 15
8 -19 9 -19 9 -1 1 10 -7 25 -16 32 -17 13 -17 14 0 8 13 -5 17 -1 17 17 0 17
3 20 11 12 9 -9 136 -911 142 -1005 1 -21 16 -23 41 -5 15 11 16 17 7 35 -16
31 -14 34 20 27 20 -5 36 -2 47 8 9 8 47 31 85 52 37 20 72 46 78 56 5 11 14
17 19 14 6 -3 7 1 4 9 -7 19 44 42 59 27 19 -19 -3 -79 -43 -120 -22 -23 -40
-45 -40 -50 0 -29 -150 -88 -259 -102 -105 -13 -811 -13 -811 1 0 7 -89 5 -97
-3 -3 -4 -11 -3 -18 3 -6 5 -37 8 -68 7 -31 -1 -57 1 -57 5 0 5 -44 7 -97 6
-163 -2 -265 17 -291 54 -7 10 -18 16 -23 13 -5 -4 -9 -2 -9 3 0 5 -11 14 -25
20 -14 6 -25 18 -25 26 0 7 -8 20 -17 27 -29 24 -73 91 -73 112 0 17 2 18 16
6 18 -15 46 -18 55 -6 3 4 25 -10 50 -31 84 -73 141 -105 191 -108 41 -3 45
-1 41 15 -3 10 0 22 6 25 5 4 8 13 4 21 -3 8 0 15 6 15 6 0 11 10 10 23 0 21
-1 21 -9 2 -7 -16 -9 -17 -9 -3 -1 9 5 21 13 25 15 9 28 63 15 63 -5 0 -9 5
-9 11 0 5 5 7 10 4 6 -3 10 5 10 19 0 14 -5 28 -10 31 -6 4 -7 11 -4 17 4 6
10 5 16 -3 6 -10 7 -7 3 9 -14 48 -13 73 1 68 16 -6 19 10 4 19 -5 3 -10 16
-10 28 0 18 2 20 11 7 9 -12 10 -11 6 8 -3 13 0 22 6 22 7 0 5 5 -3 10 -13 9
-13 11 -1 19 17 11 22 80 7 100 -8 11 -8 13 1 8 17 -10 28 13 12 24 -10 6 -11
9 -1 9 6 0 12 5 12 11 0 5 -4 7 -10 4 -5 -3 -10 3 -10 14 0 11 5 23 12 27 7 4
8 3 4 -4 -4 -7 -2 -12 3 -12 15 0 14 30 -1 31 -10 0 -10 2 0 6 6 2 12 14 11
26 0 21 -1 21 -9 2 -7 -16 -9 -17 -9 -3 -1 9 3 19 8 22 4 3 7 18 5 33 -4 23
-3 24 4 8 8 -18 9 -17 14 7 4 19 1 25 -9 21 -10 -4 -10 1 2 23 17 33 19 48 6
40 -4 -3 -1 10 8 29 21 45 45 47 37 3 -3 -18 -30 -229 -61 -468 -30 -239 -59
-450 -64 -467 -9 -32 -8 -33 17 -27 39 10 42 13 42 40 0 24 0 24 103 24 56 -1
154 -7 217 -14 68 -8 125 -9 138 -4 27 9 45 2 36 -15 -4 -7 -3 -8 1 -4 12 10
15 38 4 31 -5 -3 -9 174 -9 440 0 248 4 446 9 446 5 0 11 14 15 31 3 17 10 28
16 24 6 -4 10 -183 10 -516z m-156 -1214 c25 -29 94 -55 145 -55 40 0 126 29
162 54 50 35 58 2 15 -57 -53 -73 -189 -96 -273 -48 -24 14 -43 29 -43 35 0 5
-3 6 -7 2 -11 -10 -41 55 -35 76 6 24 11 23 36 -7z"/>
<path d="M3098 5478 c-15 -18 -18 -19 -18 -5 0 22 -9 21 -30 -3 l-18 -21 -15
21 c-12 18 -18 19 -48 9 -19 -7 -38 -16 -44 -22 -7 -7 -5 -7 5 -2 13 8 13 6 1
-8 -7 -9 -17 -14 -22 -12 -4 3 -7 -4 -6 -15 1 -14 6 -19 17 -15 9 3 8 -1 -4
-10 -11 -8 -14 -15 -8 -15 7 0 12 -7 12 -15 0 -8 9 -15 20 -15 15 0 22 9 27
30 5 25 8 28 20 18 11 -9 19 -9 33 0 11 7 33 9 51 5 25 -5 35 -2 46 12 11 16
13 16 13 3 0 -9 -7 -23 -15 -31 -13 -13 -13 -16 0 -21 8 -3 17 -1 20 4 11 18
33 115 29 122 -10 16 -49 7 -66 -14z"/>
</g>
</svg>
